<svg width="290" height="220" viewBox="0 0 290 220" fill="none" xmlns="http://www.w3.org/2000/svg">
<g clip-path="url(#clip0_9198_105194)">
<path d="M220.504 86.326C223.534 89.4908 226.915 89.9958 230.646 87.841C229.08 85.3421 228.708 82.624 229.125 79.7607H221.856C222.178 82.2769 222.092 84.6197 220.504 86.326Z" fill="#FFB8B8"/>
<path d="M232.506 169.149L236.394 167.129L238.084 145.75V134.471L229.125 134.303L231.66 145.581L232.506 169.149Z" fill="#FFB8B8"/>
<path d="M221.236 169.149L217.348 167.129L215.658 145.75V134.471L224.617 134.303L222.081 145.581L221.236 169.149Z" fill="#FFB8B8"/>
<path d="M215.264 136.828L224.73 135.986L226.252 127.401L228.111 135.818L238.422 135.145C238.648 131.054 238.075 126.845 236.732 122.519L214.081 122.014L215.264 136.828Z" fill="#2F2E41"/>
<path d="M205.425 104.586L194.039 95.8536C193.921 95.7629 193.791 95.6886 193.652 95.6326L191.997 94.962C190.668 94.4234 188.136 92.632 189.371 90.7874C190.367 89.3002 194.178 91.9644 194.646 92.9514C194.795 93.262 195.038 93.518 195.341 93.6828L197.655 94.9456C197.711 94.9763 197.769 95.0037 197.828 95.0277L206.638 98.5838C206.883 98.6824 207.147 98.7215 207.409 98.698C207.672 98.6744 207.925 98.5888 208.147 98.4482L209.744 97.4397C209.972 97.2961 210.231 97.21 210.499 97.1885C210.767 97.1671 211.037 97.2111 211.284 97.3167C211.531 97.4223 211.749 97.5864 211.918 97.7946C212.088 98.0029 212.204 98.2491 212.256 98.512L212.784 101.165C212.86 101.547 212.798 101.944 212.608 102.284C212.419 102.625 212.114 102.888 211.749 103.027L207.026 104.82C206.761 104.92 206.475 104.952 206.195 104.91C205.915 104.869 205.65 104.758 205.425 104.586Z" fill="#FFB8B8"/>
<path d="M207.54 98.2233C210.693 97.3814 210.362 101.768 212.767 103.924L217.496 100.206L214.757 86.9995C214.022 87.2086 213.346 87.5851 212.782 88.0991C212.218 88.6131 211.783 89.2507 211.509 89.9614L207.54 98.2233Z" fill="#6C63FF"/>
<path d="M207.54 98.2233C210.693 97.3814 210.362 101.768 212.767 103.924L217.496 100.206L214.757 86.9995C214.022 87.2086 213.346 87.5851 212.782 88.0991C212.218 88.6131 211.783 89.2507 211.509 89.9614L207.54 98.2233Z" fill="black" fill-opacity="0.2"/>
<path d="M213.404 122.856H237.238C233.381 112.504 233.757 101.857 237.041 91.0074C237.096 90.8272 237.086 90.6336 237.014 90.4598C236.941 90.2861 236.809 90.1431 236.642 90.0555L229.801 86.4943C227.115 88.2344 224.229 87.6997 221.18 85.3159L213.742 87.336C215.767 99.446 215.825 111.307 213.404 122.856Z" fill="#6C63FF"/>
<path d="M213.404 122.856H237.238C233.381 112.504 233.757 101.857 237.041 91.0074C237.096 90.8272 237.086 90.6336 237.014 90.4598C236.941 90.2861 236.809 90.1431 236.642 90.0555L229.801 86.4943C227.115 88.2344 224.229 87.6997 221.18 85.3159L213.742 87.336C215.767 99.446 215.825 111.307 213.404 122.856Z" fill="black" fill-opacity="0.2"/>
<path d="M219.364 173.102L209.431 173.522C208.999 173.54 208.575 173.398 208.241 173.124C207.907 172.85 207.687 172.462 207.623 172.035C207.558 171.605 207.657 171.166 207.901 170.804C208.144 170.443 208.515 170.185 208.94 170.081L210.624 169.67L217.246 165.848C218.227 166.859 219.578 167.715 221.229 168.443L221.248 171.13C221.252 171.638 221.058 172.128 220.706 172.496C220.355 172.863 219.873 173.081 219.364 173.102Z" fill="#2F2E41"/>
<path d="M251.511 173.556H31.8477V173.016H251.61L251.511 173.556Z" fill="#3F3D56"/>
<path d="M234.295 172.953L244.227 173.372C244.66 173.39 245.084 173.248 245.418 172.974C245.752 172.7 245.972 172.312 246.036 171.886C246.1 171.455 246.001 171.016 245.758 170.654C245.514 170.293 245.144 170.035 244.719 169.931L243.034 169.52L236.413 165.698C235.432 166.709 234.081 167.565 232.43 168.293L232.41 170.981C232.407 171.488 232.601 171.978 232.953 172.346C233.304 172.713 233.785 172.931 234.295 172.953Z" fill="#2F2E41"/>
<path d="M224.729 82.7908C227.717 82.7908 230.139 80.379 230.139 77.4039C230.139 74.4289 227.717 72.0171 224.729 72.0171C221.742 72.0171 219.32 74.4289 219.32 77.4039C219.32 80.379 221.742 82.7908 224.729 82.7908Z" fill="#FFB8B8"/>
<path d="M233.182 121.172L231.395 124.633C231.237 124.938 231.146 125.273 231.127 125.616C231.109 125.959 231.164 126.302 231.288 126.622C231.412 126.943 231.603 127.233 231.848 127.475C232.093 127.717 232.387 127.904 232.71 128.024C233.051 128.152 233.417 128.202 233.781 128.17C234.144 128.138 234.496 128.026 234.81 127.841C235.125 127.656 235.393 127.404 235.597 127.102C235.8 126.8 235.933 126.457 235.986 126.097L236.731 121.004L239.436 108.21L239.267 101.813H233.858C235.703 106.571 234.787 113.589 233.182 121.172Z" fill="#FFB8B8"/>
<path d="M233.013 102.487H240.281L239.226 94.548C239.083 93.4714 238.672 92.4476 238.029 91.5701C237.387 90.6926 236.534 89.9893 235.548 89.5244L233.013 102.487Z" fill="#6C63FF"/>
<path d="M233.013 102.487H240.281L239.226 94.548C239.083 93.4714 238.672 92.4476 238.029 91.5701C237.387 90.6926 236.534 89.9893 235.548 89.5244L233.013 102.487Z" fill="black" fill-opacity="0.2"/>
<path d="M230.481 74.4372C230.589 73.7176 230.543 72.9834 230.347 72.2825C230.152 71.5815 229.81 70.9295 229.344 70.369C228.421 69.2814 226.874 68.3912 224.307 68.8112C218.708 69.7274 217.093 74.3697 217.642 75.5371C218.19 76.7046 219.872 79.4109 219.872 79.4109C219.872 79.4109 218.638 76.7319 219.977 76.1866C221.317 75.6413 226.5 73.4931 228.309 74.4609C228.821 74.717 229.256 75.1036 229.57 75.5815C229.883 76.0594 230.063 76.6114 230.093 77.1814L230.481 74.4372Z" fill="#2F2E41"/>
<path d="M137.899 52.0178L135.724 53.1167C133.219 48.2046 129.9 43.7482 125.907 39.9348C106.299 21.1618 75.0103 21.7755 56.1595 41.303C37.3088 60.8304 37.9251 91.9901 57.5334 110.763C61.2654 114.343 65.5409 117.315 70.2024 119.569L69.1385 121.754C61.7498 118.182 55.3208 112.909 50.3828 106.373C45.4447 99.8362 42.1393 92.2234 40.7396 84.1633C39.3399 76.1031 39.8862 67.827 42.3333 60.0187C44.7803 52.2103 49.0579 45.094 54.8127 39.2575C60.5674 33.421 67.6341 29.032 75.4289 26.4531C83.2236 23.8742 91.5227 23.1793 99.6404 24.4261C107.758 25.6728 115.461 28.8252 122.114 33.6229C128.766 38.4207 134.177 44.7259 137.899 52.0178Z" fill="#6E6AF0"/>
<path d="M64.3213 97.2009C61.1224 100.515 59.3763 104.958 59.4672 109.554C59.5581 114.15 61.4786 118.521 64.806 121.707C68.1335 124.893 72.5954 126.632 77.2102 126.541C81.8251 126.451 86.2148 124.538 89.4137 121.224L92.4098 118.121L67.3175 94.0972L64.3213 97.2009Z" fill="#6E6AF0"/>
<path d="M65.6357 92.3346C64.9237 93.0739 64.5352 94.0642 64.5554 95.0884C64.5757 96.1126 65.0031 97.087 65.7438 97.7977L88.7584 119.832C89.5002 120.542 90.4949 120.93 91.5237 120.91C92.5525 120.889 93.5311 120.463 94.2442 119.724C94.9573 118.986 95.3466 117.995 95.3263 116.971C95.3061 115.946 94.8779 114.971 94.1362 114.261L71.1215 92.227C70.3792 91.5179 69.3847 91.131 68.3563 91.1511C67.3279 91.1713 66.3495 91.5969 65.6357 92.3346Z" fill="#535461"/>
<path d="M134.664 74.3506L137.66 71.2469C140.859 67.9331 142.605 63.4896 142.514 58.8938C142.423 54.298 140.503 49.9264 137.175 46.7407C135.528 45.1633 133.584 43.9245 131.456 43.0951C129.327 42.2657 127.056 41.8619 124.771 41.9067C120.156 41.9972 115.766 43.9097 112.567 47.2234L109.571 50.3271L134.664 74.3506Z" fill="#6E6AF0"/>
<path d="M107.736 48.7237C107.024 49.463 106.636 50.4534 106.656 51.4776C106.676 52.5018 107.104 53.4761 107.844 54.1869L130.859 76.2211C131.601 76.9305 132.595 77.3174 133.624 77.2969C134.652 77.2763 135.63 76.85 136.343 76.1116C137.056 75.3733 137.445 74.3832 137.425 73.3591C137.405 72.3351 136.978 71.3608 136.237 70.6504L113.222 48.6161C112.48 47.907 111.485 47.5201 110.457 47.5403C109.428 47.5605 108.45 47.9861 107.736 48.7237Z" fill="#535461"/>
<path d="M117.444 99.6442V97.8539C117.444 97.8539 125.289 93.4596 131.662 97.8539V99.4814L117.444 99.6442Z" fill="#535461"/>
<path d="M188.861 99.6442V97.8539C188.861 97.8539 196.706 93.4596 203.079 97.8539V99.4814L188.861 99.6442Z" fill="#535461"/>
<path d="M140.977 99.4815H133.296C133.296 99.4815 131.335 97.203 124.798 97.3657C118.261 97.5285 116.954 99.4815 116.954 99.4815C116.954 99.4815 110.499 103.794 109.028 109.165C109.028 109.165 101.102 132.845 100.938 151.399C100.775 169.953 107.966 172.557 111.724 173.045C115.483 173.533 122.184 172.882 128.721 156.444L131.499 146.842C131.499 146.842 131.989 141.146 137.872 144.726C143.756 148.307 148.985 142.773 148.985 142.773H171.048C171.048 142.773 178.402 147.33 185.102 143.75C185.102 143.75 187.717 140.332 190.168 151.887C190.168 151.887 197.686 175.649 209.289 173.208C220.892 170.766 219.585 150.911 219.585 150.911C219.585 150.911 218.032 120.558 211.659 109.816C211.659 109.816 205.53 98.6678 201.445 98.1795C201.445 98.1795 192.62 96.552 189.188 98.0167L187.227 99.6443L140.977 99.4815Z" fill="#6E6AF0"/>
<path d="M123.164 129.59C131.017 129.59 137.382 123.251 137.382 115.431C137.382 107.611 131.017 101.271 123.164 101.271C115.312 101.271 108.946 107.611 108.946 115.431C108.946 123.251 115.312 129.59 123.164 129.59Z" fill="#535461"/>
<path d="M197.36 129.59C205.212 129.59 211.578 123.251 211.578 115.431C211.578 107.611 205.212 101.271 197.36 101.271C189.507 101.271 183.142 107.611 183.142 115.431C183.142 123.251 189.507 129.59 197.36 129.59Z" fill="#535461"/>
<path d="M125.642 112.274L123.746 113.944C123.586 114.084 123.379 114.162 123.165 114.162C122.951 114.162 122.745 114.084 122.584 113.944L120.685 112.274C120.592 112.192 120.518 112.092 120.466 111.98C120.415 111.868 120.388 111.746 120.388 111.623V107.028C120.388 106.796 120.481 106.574 120.646 106.41C120.811 106.246 121.034 106.154 121.267 106.154H125.067C125.299 106.154 125.523 106.246 125.688 106.409C125.852 106.573 125.945 106.795 125.946 107.027V111.619C125.945 111.744 125.917 111.866 125.865 111.979C125.812 112.092 125.736 112.192 125.642 112.274Z" fill="url(#paint0_linear_9198_105194)"/>
<path d="M125.642 118.587L123.746 116.919C123.586 116.778 123.379 116.7 123.165 116.7C122.951 116.7 122.745 116.778 122.584 116.919L120.685 118.588C120.592 118.67 120.518 118.77 120.466 118.882C120.415 118.994 120.388 119.116 120.388 119.239V123.829C120.387 124.061 120.479 124.283 120.644 124.447C120.808 124.612 121.031 124.704 121.264 124.705H125.067C125.299 124.705 125.523 124.613 125.688 124.45C125.852 124.286 125.945 124.064 125.946 123.832V119.241C125.945 119.117 125.917 118.994 125.865 118.881C125.812 118.768 125.736 118.668 125.642 118.587Z" fill="url(#paint1_linear_9198_105194)"/>
<path d="M119.995 117.902L121.672 116.011C121.813 115.851 121.891 115.645 121.891 115.432C121.891 115.219 121.813 115.013 121.672 114.853L119.995 112.962C119.913 112.87 119.813 112.796 119.7 112.745C119.588 112.694 119.465 112.667 119.342 112.666H114.733C114.5 112.666 114.277 112.759 114.112 112.923C113.948 113.087 113.855 113.31 113.855 113.542V117.326C113.855 117.557 113.947 117.78 114.111 117.944C114.276 118.108 114.499 118.201 114.731 118.201H119.343C119.467 118.2 119.589 118.173 119.701 118.121C119.814 118.069 119.914 117.995 119.995 117.902Z" fill="url(#paint2_linear_9198_105194)"/>
<path d="M126.335 117.902L124.661 116.009C124.52 115.849 124.441 115.644 124.441 115.43C124.441 115.217 124.52 115.012 124.661 114.852L126.338 112.961C126.42 112.868 126.52 112.794 126.633 112.743C126.746 112.692 126.868 112.665 126.992 112.665H131.6C131.833 112.664 132.056 112.756 132.221 112.919C132.386 113.083 132.479 113.305 132.48 113.537V117.324C132.48 117.556 132.388 117.778 132.224 117.943C132.059 118.107 131.836 118.199 131.604 118.2H126.993C126.869 118.2 126.745 118.173 126.632 118.122C126.518 118.07 126.417 117.995 126.335 117.902Z" fill="url(#paint3_linear_9198_105194)"/>
<path d="M142.448 141.146C148.134 141.146 152.744 136.555 152.744 130.892C152.744 125.23 148.134 120.639 142.448 120.639C136.762 120.639 132.152 125.23 132.152 130.892C132.152 136.555 136.762 141.146 142.448 141.146Z" fill="#535461"/>
<path d="M178.075 141.146C183.761 141.146 188.371 136.555 188.371 130.892C188.371 125.23 183.761 120.639 178.075 120.639C172.389 120.639 167.779 125.23 167.779 130.892C167.779 136.555 172.389 141.146 178.075 141.146Z" fill="#535461"/>
<g filter="url(#filter0_d_9198_105194)">
<path d="M142.449 137.728C146.24 137.728 149.313 134.667 149.313 130.892C149.313 127.117 146.24 124.057 142.449 124.057C138.658 124.057 135.585 127.117 135.585 130.892C135.585 134.667 138.658 137.728 142.449 137.728Z" fill="url(#paint4_linear_9198_105194)"/>
</g>
<path d="M142.448 135.612C141.511 135.612 140.595 135.335 139.815 134.817C139.036 134.298 138.428 133.561 138.07 132.698C137.711 131.836 137.617 130.887 137.8 129.971C137.983 129.056 138.434 128.215 139.097 127.555C139.76 126.895 140.604 126.445 141.524 126.263C142.443 126.081 143.396 126.174 144.262 126.532C145.128 126.889 145.868 127.494 146.389 128.27C146.91 129.046 147.188 129.959 147.188 130.892C147.186 132.143 146.686 133.343 145.798 134.228C144.909 135.113 143.705 135.611 142.448 135.612ZM142.448 126.498C141.576 126.498 140.723 126.756 139.997 127.238C139.271 127.721 138.706 128.408 138.372 129.211C138.038 130.013 137.95 130.897 138.121 131.749C138.291 132.602 138.711 133.385 139.328 133.999C139.945 134.614 140.732 135.032 141.587 135.202C142.443 135.372 143.331 135.285 144.137 134.952C144.943 134.619 145.632 134.056 146.117 133.333C146.602 132.611 146.861 131.761 146.861 130.892C146.859 129.727 146.394 128.61 145.567 127.786C144.74 126.963 143.618 126.499 142.448 126.498Z" fill="#535461"/>
<g filter="url(#filter1_d_9198_105194)">
<path d="M178.075 137.728C181.866 137.728 184.939 134.667 184.939 130.892C184.939 127.117 181.866 124.057 178.075 124.057C174.284 124.057 171.211 127.117 171.211 130.892C171.211 134.667 174.284 137.728 178.075 137.728Z" fill="url(#paint5_linear_9198_105194)"/>
</g>
<path d="M178.075 135.612C177.138 135.612 176.222 135.335 175.442 134.817C174.663 134.298 174.055 133.561 173.697 132.698C173.338 131.836 173.244 130.887 173.427 129.971C173.61 129.056 174.061 128.215 174.724 127.555C175.387 126.895 176.231 126.445 177.151 126.263C178.07 126.081 179.023 126.174 179.889 126.532C180.755 126.889 181.495 127.494 182.016 128.27C182.537 129.046 182.815 129.959 182.815 130.892C182.813 132.143 182.313 133.343 181.425 134.228C180.536 135.113 179.332 135.61 178.075 135.612ZM178.075 126.498C177.203 126.498 176.349 126.756 175.624 127.238C174.898 127.721 174.333 128.408 173.999 129.211C173.665 130.013 173.577 130.897 173.748 131.749C173.918 132.602 174.338 133.385 174.955 133.999C175.572 134.614 176.358 135.032 177.214 135.202C178.07 135.372 178.958 135.285 179.764 134.952C180.57 134.619 181.259 134.056 181.744 133.333C182.229 132.611 182.488 131.761 182.488 130.892C182.486 129.727 182.021 128.61 181.194 127.786C180.367 126.963 179.245 126.499 178.075 126.498Z" fill="#535461"/>
<path d="M160.589 134.961C162.214 134.961 163.531 133.649 163.531 132.032C163.531 130.414 162.214 129.102 160.589 129.102C158.964 129.102 157.647 130.414 157.647 132.032C157.647 133.649 158.964 134.961 160.589 134.961Z" fill="#535461"/>
<path d="M156.092 122.893C156.447 122.893 156.735 122.607 156.735 122.253C156.735 121.9 156.447 121.614 156.092 121.614C155.738 121.614 155.45 121.9 155.45 122.253C155.45 122.607 155.738 122.893 156.092 122.893Z" fill="#535461"/>
<path d="M158.499 122.893C158.853 122.893 159.141 122.607 159.141 122.253C159.141 121.9 158.853 121.614 158.499 121.614C158.144 121.614 157.856 121.9 157.856 122.253C157.856 122.607 158.144 122.893 158.499 122.893Z" fill="#535461"/>
<path d="M158.178 125.929C158.533 125.929 158.821 125.642 158.821 125.289C158.821 124.936 158.533 124.649 158.178 124.649C157.824 124.649 157.536 124.936 157.536 125.289C157.536 125.642 157.824 125.929 158.178 125.929Z" fill="#535461"/>
<path d="M160.425 126.01C160.786 126.01 161.079 125.719 161.079 125.359C161.079 124.999 160.786 124.708 160.425 124.708C160.064 124.708 159.771 124.999 159.771 125.359C159.771 125.719 160.064 126.01 160.425 126.01Z" fill="#535461"/>
<path d="M162.67 125.929C163.024 125.929 163.312 125.642 163.312 125.289C163.312 124.936 163.024 124.649 162.67 124.649C162.315 124.649 162.027 124.936 162.027 125.289C162.027 125.642 162.315 125.929 162.67 125.929Z" fill="#535461"/>
<path d="M157.216 124.492C157.57 124.492 157.858 124.205 157.858 123.852C157.858 123.499 157.57 123.212 157.216 123.212C156.861 123.212 156.573 123.499 156.573 123.852C156.573 124.205 156.861 124.492 157.216 124.492Z" fill="#535461"/>
<path d="M159.282 124.545C159.643 124.545 159.935 124.254 159.935 123.894C159.935 123.535 159.643 123.243 159.282 123.243C158.921 123.243 158.628 123.535 158.628 123.894C158.628 124.254 158.921 124.545 159.282 124.545Z" fill="#535461"/>
<path d="M161.406 124.545C161.767 124.545 162.059 124.254 162.059 123.894C162.059 123.535 161.767 123.243 161.406 123.243C161.045 123.243 160.752 123.535 160.752 123.894C160.752 124.254 161.045 124.545 161.406 124.545Z" fill="#535461"/>
<path d="M163.632 124.492C163.986 124.492 164.274 124.205 164.274 123.852C164.274 123.499 163.986 123.212 163.632 123.212C163.277 123.212 162.989 123.499 162.989 123.852C162.989 124.205 163.277 124.492 163.632 124.492Z" fill="#535461"/>
<path d="M160.425 122.918C160.786 122.918 161.079 122.626 161.079 122.267C161.079 121.907 160.786 121.616 160.425 121.616C160.064 121.616 159.771 121.907 159.771 122.267C159.771 122.626 160.064 122.918 160.425 122.918Z" fill="#535461"/>
<path d="M162.713 122.918C163.074 122.918 163.367 122.626 163.367 122.267C163.367 121.907 163.074 121.616 162.713 121.616C162.352 121.616 162.06 121.907 162.06 122.267C162.06 122.626 162.352 122.918 162.713 122.918Z" fill="#535461"/>
<path d="M164.594 122.893C164.949 122.893 165.237 122.607 165.237 122.254C165.237 121.901 164.949 121.614 164.594 121.614C164.24 121.614 163.952 121.901 163.952 122.254C163.952 122.607 164.24 122.893 164.594 122.893Z" fill="#535461"/>
<path d="M136.157 100.869C135.855 100.869 135.565 100.989 135.351 101.202C135.137 101.414 135.017 101.703 135.017 102.004V105.422C135.017 105.723 135.137 106.012 135.351 106.225C135.565 106.437 135.855 106.557 136.157 106.558H136.974C137.276 106.557 137.566 106.437 137.78 106.225C137.994 106.012 138.114 105.723 138.114 105.422V102.004C138.114 101.703 137.994 101.414 137.78 101.202C137.566 100.989 137.276 100.869 136.974 100.869H136.157Z" fill="#535461"/>
<path d="M183.877 100.869C183.574 100.869 183.284 100.989 183.071 101.202C182.857 101.414 182.737 101.703 182.736 102.004V105.422C182.737 105.723 182.857 106.012 183.071 106.225C183.284 106.437 183.574 106.557 183.877 106.558H184.694C184.996 106.557 185.286 106.437 185.5 106.225C185.713 106.012 185.834 105.723 185.834 105.422V102.004C185.834 101.703 185.713 101.414 185.5 101.202C185.286 100.989 184.996 100.869 184.694 100.869H183.877Z" fill="#535461"/>
<path d="M143.552 98.5898C142.675 98.5908 141.835 98.938 141.215 99.5551C140.596 100.172 140.247 101.009 140.246 101.882V116.448C140.247 117.321 140.596 118.158 141.215 118.775C141.835 119.392 142.675 119.739 143.552 119.74H177.136C178.012 119.739 178.852 119.392 179.472 118.775C180.092 118.158 180.44 117.321 180.441 116.448V101.882C180.44 101.009 180.092 100.172 179.472 99.5551C178.852 98.938 178.012 98.5908 177.136 98.5898H143.552Z" fill="#535461"/>
<path d="M197.523 110.711C199.689 110.711 201.445 108.963 201.445 106.805C201.445 104.648 199.689 102.899 197.523 102.899C195.357 102.899 193.601 104.648 193.601 106.805C193.601 108.963 195.357 110.711 197.523 110.711Z" fill="#70FF00"/>
<path d="M200.187 108.595H194.868L197.436 104.212L200.187 108.595ZM195.437 108.27H199.597L197.445 104.841L195.437 108.27Z" fill="white"/>
<path d="M189.189 119.012C191.355 119.012 193.111 117.263 193.111 115.106C193.111 112.948 191.355 111.2 189.189 111.2C187.023 111.2 185.267 112.948 185.267 115.106C185.267 117.263 187.023 119.012 189.189 119.012Z" fill="#FF0000"/>
<path d="M191.395 117.058H186.982V113.152H191.395V117.058ZM187.309 116.733H191.068V113.478H187.309V116.733Z" fill="white"/>
<path d="M206.184 118.523C208.35 118.523 210.106 116.775 210.106 114.617C210.106 112.46 208.35 110.711 206.184 110.711C204.018 110.711 202.262 112.46 202.262 114.617C202.262 116.775 204.018 118.523 206.184 118.523Z" fill="#2400FF"/>
<path d="M206.184 117.059C205.699 117.059 205.225 116.916 204.822 116.647C204.419 116.379 204.105 115.998 203.919 115.552C203.733 115.106 203.685 114.615 203.78 114.141C203.874 113.668 204.108 113.233 204.45 112.891C204.793 112.55 205.23 112.317 205.706 112.223C206.181 112.129 206.674 112.177 207.122 112.362C207.57 112.547 207.953 112.86 208.222 113.261C208.491 113.663 208.635 114.135 208.635 114.618C208.634 115.265 208.376 115.885 207.916 116.343C207.457 116.801 206.834 117.058 206.184 117.059ZM206.184 112.502C205.764 112.502 205.353 112.626 205.003 112.858C204.654 113.091 204.382 113.421 204.221 113.808C204.06 114.194 204.018 114.62 204.1 115.03C204.182 115.441 204.384 115.818 204.682 116.114C204.979 116.409 205.357 116.611 205.769 116.693C206.181 116.774 206.609 116.732 206.997 116.572C207.385 116.412 207.717 116.141 207.95 115.793C208.184 115.445 208.308 115.036 208.308 114.618C208.308 114.057 208.084 113.519 207.685 113.122C207.287 112.725 206.747 112.502 206.184 112.502Z" fill="white"/>
<path d="M198.177 127.149C200.343 127.149 202.099 125.401 202.099 123.243C202.099 121.086 200.343 119.337 198.177 119.337C196.011 119.337 194.255 121.086 194.255 123.243C194.255 125.401 196.011 127.149 198.177 127.149Z" fill="#FFD600"/>
<path d="M196.413 121.297L196.182 121.527L199.859 125.189L200.09 124.959L196.413 121.297Z" fill="white"/>
<path d="M199.943 121.295L196.185 124.875L196.411 125.111L200.169 121.53L199.943 121.295Z" fill="white"/>
<path d="M164.119 45.9834C166.286 45.9834 168.042 44.2347 168.042 42.0774C168.042 39.9202 166.286 38.1714 164.119 38.1714C161.953 38.1714 160.197 39.9202 160.197 42.0774C160.197 44.2347 161.953 45.9834 164.119 45.9834Z" fill="#FFD600"/>
<path d="M162.355 40.1312L162.124 40.3613L165.801 44.0232L166.032 43.7931L162.355 40.1312Z" fill="white"/>
<path d="M165.885 40.1285L162.127 43.7095L162.353 43.9447L166.111 40.3637L165.885 40.1285Z" fill="white"/>
<path d="M66.5058 61.4C57.5828 63.8499 47.8117 65.6941 44.3105 62.833C46.2274 59.6549 47.3331 56.5225 47.4269 53.447C47.448 52.0398 48.0203 50.6965 49.0217 49.7036C49.6847 49.0657 50.485 48.5867 51.3617 48.303C52.2384 48.0193 53.1685 47.9383 54.0813 48.0662L56.3971 48.3899C56.475 48.4008 56.5526 48.4131 56.6297 48.427C57.7412 48.6367 58.7589 49.1878 59.5399 50.0029C60.3208 50.818 60.8259 51.8562 60.9841 52.9717C61.472 56.3066 63.1126 59.1937 66.5058 61.4Z" fill="#2F2E41"/>
<path d="M75.1131 93.0389L78.582 93.7512C78.8469 93.8056 79.0964 93.9181 79.3123 94.0805C79.5281 94.2429 79.705 94.4511 79.8299 94.69C79.9549 94.929 80.0249 95.1926 80.0348 95.4619C80.0447 95.7311 79.9943 95.9992 79.8872 96.2466C79.7837 96.4856 79.6298 96.6997 79.4358 96.8743C79.2419 97.0489 79.0125 97.1799 78.7632 97.2584C78.514 97.3368 78.2507 97.361 77.9912 97.3291C77.7317 97.2973 77.4822 97.2102 77.2595 97.0738L71.9533 93.8237L62.9404 72.7236L67.6086 71.3789L75.1131 93.0389Z" fill="#A0616A"/>
<path d="M50.4019 120.726L47.7753 121.487L45.7871 117.398L47.8089 116.349L50.4019 120.726Z" fill="#A0616A"/>
<path d="M49.0674 138.246L45.8447 137.397L46.3492 131.883L49.1227 132.053L49.0674 138.246Z" fill="#A0616A"/>
<path d="M49.4038 116.904L45.9905 119.141L32.8627 104.353C32.578 104.032 32.3677 103.653 32.2469 103.242C32.126 102.831 32.0976 102.399 32.1636 101.976C32.2296 101.553 32.3884 101.149 32.6287 100.794C32.869 100.439 33.185 100.141 33.554 99.9216L49.908 90.1899L52.4128 97.3558L43.8973 105.314L49.4038 116.904Z" fill="#2F2E41"/>
<path d="M52.2779 124.645C52.2693 124.656 52.2607 124.667 52.2521 124.678C52.034 125.95 51.6508 127.11 50.7952 127.95C50.5416 128.52 50.0861 128.977 49.5157 129.233C48.9454 129.49 48.3001 129.528 47.7032 129.341C47.1402 129.164 46.6564 128.799 46.3343 128.306C46.0123 127.813 45.872 127.225 45.9377 126.641L46.5755 120.963C48.1055 120.613 49.2724 119.746 49.863 118.061L51.3499 119.069C51.79 119.365 52.1648 119.748 52.4516 120.193C52.7383 120.638 52.931 121.136 53.0179 121.658C53.1047 122.18 53.0839 122.714 52.9566 123.227C52.8294 123.741 52.5984 124.223 52.2779 124.645Z" fill="#2F2E41"/>
<path d="M53.8961 60.1845C56.7976 60.1845 59.1497 57.8421 59.1497 54.9526C59.1497 52.0631 56.7976 49.7207 53.8961 49.7207C50.9947 49.7207 48.6426 52.0631 48.6426 54.9526C48.6426 57.8421 50.9947 60.1845 53.8961 60.1845Z" fill="#A0616A"/>
<path d="M58.4458 63.3159L50.1636 70.1469L49.5186 67.3351L50.9642 65.1406C51.3653 62.9875 51.1063 60.6132 50.417 58.0947L55.8205 58.0997C56.0538 60.1349 56.8494 61.9103 58.4458 63.3159Z" fill="#A0616A"/>
<path d="M60.7775 81.2344L49.5965 84.6262L48.7266 80.6659C46.6312 77.8641 45.7204 75.3068 47.0912 73.2203L46.4014 70.0796C48.3803 68.528 49.9364 66.9404 50.7909 65.2932L57.6702 62.6162L62.7274 62.9261L64.2208 67.9099L60.7775 81.2344Z" fill="#6C63FF"/>
<path d="M60.7775 81.2344L49.5965 84.6262L48.7266 80.6659C46.6312 77.8641 45.7204 75.3068 47.0912 73.2203L46.4014 70.0796C48.3803 68.528 49.9364 66.9404 50.7909 65.2932L57.6702 62.6162L62.7274 62.9261L64.2208 67.9099L60.7775 81.2344Z" fill="black" fill-opacity="0.2"/>
<path d="M68.7209 71.9366C66.3375 71.9115 64.005 72.6232 62.0449 73.9737L62.7275 62.9263C63.4203 63.0184 64.0771 63.2886 64.6332 63.7102C65.1894 64.1319 65.6257 64.6904 65.8993 65.331L68.7209 71.9366Z" fill="#6C63FF"/>
<path d="M68.7209 71.9366C66.3375 71.9115 64.005 72.6232 62.0449 73.9737L62.7275 62.9263C63.4203 63.0184 64.0771 63.2886 64.6332 63.7102C65.1894 64.1319 65.6257 64.6904 65.8993 65.331L68.7209 71.9366Z" fill="black" fill-opacity="0.2"/>
<path d="M49.3682 133.373L45.8193 132.503L46.3417 102.473L51.1071 97.2759L50.0404 90.6874L49.3501 83.3066L60.9904 80.4321C64.9249 87.5466 67.303 94.0151 63.8317 98.0555L49.3682 133.373Z" fill="#2F2E41"/>
<path d="M48.5533 143.512C48.5374 143.518 48.5215 143.524 48.5055 143.53C47.475 144.722 46.3428 145.693 44.9194 146.035C44.295 146.471 43.5311 146.663 42.7737 146.574C42.0164 146.485 41.3185 146.121 40.8133 145.552C40.3369 145.015 40.0625 144.33 40.0371 143.614C40.0117 142.899 40.2368 142.196 40.6739 141.627L44.9227 136.099C46.7412 136.69 48.5064 136.516 50.1869 135.125L51.103 137.109C51.3756 137.694 51.5257 138.328 51.5442 138.972C51.5627 139.616 51.4492 140.257 51.2106 140.856C50.972 141.456 50.6134 142 50.1565 142.456C49.6996 142.913 49.1541 143.272 48.5533 143.512Z" fill="#2F2E41"/>
<path d="M35.5892 96.6509L32.4743 99.3068C32.2158 99.5272 32.0174 99.8091 31.8974 100.126C31.7774 100.443 31.7398 100.785 31.7879 101.121C31.8361 101.456 31.9685 101.774 32.173 102.045C32.3774 102.316 32.6472 102.531 32.9573 102.671C33.4243 102.881 33.9538 102.906 34.4388 102.742C34.9239 102.578 35.3284 102.237 35.5704 101.787L37.8229 97.6031L48.153 78.8298L44.2679 78.1025L35.5892 96.6509Z" fill="#A0616A"/>
<path d="M48.7758 79.3574C46.7581 78.7509 44.8681 78.3937 43.4023 78.8651C43.7096 75.0786 44.3429 71.696 46.4014 70.0796L49.3278 70.422L48.7758 79.3574Z" fill="#6C63FF"/>
<path d="M48.7758 79.3574C46.7581 78.7509 44.8681 78.3937 43.4023 78.8651C43.7096 75.0786 44.3429 71.696 46.4014 70.0796L49.3278 70.422L48.7758 79.3574Z" fill="black" fill-opacity="0.2"/>
<path d="M59.7608 53.7392L48.5244 53.0507L48.6627 50.8127C52.5851 48.1788 56.3305 48.4083 59.8991 51.5012L59.7608 53.7392Z" fill="#2F2E41"/>
</g>
<path d="M286.077 81.6763C288.244 81.6763 290 79.9275 290 77.7703C290 75.613 288.244 73.8643 286.077 73.8643C283.911 73.8643 282.155 75.613 282.155 77.7703C282.155 79.9275 283.911 81.6763 286.077 81.6763Z" fill="#FF0000"/>
<path d="M288.284 79.7234H283.871V75.8174H288.284V79.7234ZM284.198 79.3979H287.957V76.1429H284.198V79.3979Z" fill="white"/>
<path d="M6.31967 45.9834C8.48584 45.9834 10.2419 44.2347 10.2419 42.0774C10.2419 39.9202 8.48584 38.1714 6.31967 38.1714C4.15349 38.1714 2.39746 39.9202 2.39746 42.0774C2.39746 44.2347 4.15349 45.9834 6.31967 45.9834Z" fill="#2400FF"/>
<path d="M6.31954 44.5187C5.8347 44.5187 5.36076 44.3756 4.95763 44.1073C4.55451 43.8391 4.24031 43.4578 4.05477 43.0117C3.86923 42.5656 3.82068 42.0748 3.91527 41.6012C4.00985 41.1277 4.24333 40.6927 4.58616 40.3513C4.92899 40.0098 5.36577 39.7773 5.84128 39.6831C6.3168 39.5889 6.80969 39.6373 7.25762 39.8221C7.70555 40.0068 8.0884 40.3197 8.35776 40.7212C8.62712 41.1226 8.7709 41.5946 8.7709 42.0775C8.77018 42.7247 8.51169 43.3452 8.05212 43.8029C7.59256 44.2606 6.96946 44.518 6.31954 44.5187ZM6.31954 39.9617C5.89935 39.9617 5.48859 40.0858 5.13922 40.3183C4.78984 40.5508 4.51753 40.8812 4.35673 41.2678C4.19593 41.6544 4.15386 42.0798 4.23583 42.4902C4.31781 42.9007 4.52015 43.2777 4.81727 43.5735C5.11439 43.8694 5.49294 44.0709 5.90506 44.1526C6.31718 44.2342 6.74436 44.1923 7.13256 44.0322C7.52077 43.8721 7.85257 43.6009 8.08602 43.2529C8.31946 42.905 8.44406 42.4959 8.44406 42.0775C8.44342 41.5165 8.21938 40.9787 7.8211 40.5821C7.42281 40.1855 6.8828 39.9623 6.31954 39.9617Z" fill="white"/>
<path d="M278.114 159.507C280.28 159.507 282.036 157.758 282.036 155.601C282.036 153.444 280.28 151.695 278.114 151.695C275.947 151.695 274.191 153.444 274.191 155.601C274.191 157.758 275.947 159.507 278.114 159.507Z" fill="#70FF00"/>
<path d="M280.778 157.391H275.459L278.027 153.008L280.778 157.391ZM276.028 157.066H280.188L278.036 153.637L276.028 157.066Z" fill="white"/>
<g clip-path="url(#clip1_9198_105194)">
<path d="M141.397 210.94C141.396 210.938 141.395 210.936 141.394 210.934L138.767 207.927L138.763 207.92C138.339 207.423 137.752 207.089 137.106 206.978C136.46 206.866 135.795 206.983 135.227 207.309L131.666 209.357C131.097 209.684 130.661 210.201 130.437 210.816C130.212 211.431 130.212 212.106 130.437 212.721L131.74 216.485C131.741 216.487 131.742 216.488 131.744 216.49C131.866 216.824 132.092 217.111 132.389 217.309C132.686 217.506 133.038 217.605 133.395 217.589C133.752 217.574 134.095 217.445 134.373 217.223C134.652 217 134.852 216.695 134.945 216.351L134.95 216.328L135.502 213.591L136.998 212.731L139.655 213.623C139.662 213.626 139.67 213.628 139.677 213.63C140.107 213.744 140.565 213.685 140.951 213.464C141.163 213.341 141.346 213.174 141.486 212.974C141.627 212.774 141.722 212.546 141.764 212.305C141.807 212.065 141.796 211.818 141.732 211.582C141.669 211.346 141.554 211.127 141.397 210.94L141.397 210.94ZM134.159 211.788L133.836 211.973L134.022 212.295C134.072 212.381 134.085 212.482 134.06 212.578C134.034 212.673 133.972 212.754 133.886 212.803C133.8 212.853 133.698 212.866 133.603 212.84C133.507 212.815 133.425 212.753 133.376 212.667L133.189 212.345L132.866 212.531C132.78 212.58 132.678 212.594 132.583 212.568C132.487 212.543 132.405 212.48 132.356 212.395C132.306 212.31 132.293 212.208 132.319 212.113C132.344 212.018 132.407 211.936 132.492 211.887L132.816 211.701L132.629 211.379C132.58 211.294 132.566 211.192 132.592 211.097C132.617 211.002 132.68 210.921 132.766 210.871C132.852 210.822 132.953 210.809 133.049 210.834C133.145 210.86 133.226 210.922 133.276 211.007L133.462 211.329L133.786 211.144C133.872 211.094 133.973 211.081 134.069 211.106C134.165 211.132 134.246 211.194 134.296 211.28C134.345 211.365 134.359 211.467 134.333 211.562C134.307 211.657 134.245 211.738 134.159 211.788ZM135.589 210.536C135.54 210.451 135.526 210.349 135.552 210.254C135.577 210.159 135.64 210.077 135.726 210.028L136.696 209.47C136.781 209.421 136.883 209.408 136.979 209.433C137.075 209.459 137.156 209.521 137.206 209.607C137.255 209.692 137.269 209.793 137.243 209.889C137.217 209.984 137.155 210.065 137.069 210.114L136.099 210.672C136.013 210.721 135.911 210.735 135.816 210.709C135.72 210.684 135.639 210.621 135.589 210.536ZM141.04 212.096C141.03 212.218 140.995 212.336 140.939 212.444C140.882 212.553 140.805 212.649 140.711 212.727C140.597 212.822 140.462 212.888 140.318 212.921C140.173 212.954 140.023 212.952 139.879 212.916L137.858 212.237L138.027 212.139C138.44 211.902 138.785 211.564 139.03 211.156C139.275 210.749 139.411 210.286 139.426 209.812L140.83 211.42C140.908 211.513 140.966 211.621 141.003 211.737C141.039 211.853 141.051 211.975 141.04 212.096Z" fill="#CCCCDD"/>
</g>
<g clip-path="url(#clip2_9198_105194)">
<path d="M254.391 39.4615C252.799 37.5729 250.068 37.2012 248.042 38.5059C248.251 38.6165 248.443 38.7652 248.605 38.9574C249.003 39.4292 248.941 40.133 248.467 40.5289L246.179 42.4408C245.705 42.8366 244.999 42.775 244.601 42.3033C243.938 41.5165 244.041 40.3445 244.831 39.6843L246.833 38.0113C249.361 35.8993 253.128 36.2275 255.249 38.7446C257.37 41.2616 257.04 45.0134 254.513 47.1255L252.511 48.7984C251.721 49.4586 250.544 49.3561 249.881 48.5693C249.483 48.0976 249.545 47.3937 250.019 46.9979L252.307 45.0859C252.78 44.6901 253.487 44.7517 253.885 45.2234C254.047 45.4157 254.162 45.6286 254.233 45.8542C255.875 44.0938 255.982 41.3502 254.391 39.4615Z" fill="#CCCCDD"/>
</g>
<g opacity="0.2" clip-path="url(#clip3_9198_105194)">
<path d="M120.486 12.692C118.894 10.8033 116.163 10.4317 114.137 11.7364C114.346 11.847 114.538 11.9957 114.7 12.1879C115.097 12.6596 115.035 13.3635 114.562 13.7593L112.274 15.6713C111.8 16.0671 111.093 16.0055 110.696 15.5338C110.033 14.747 110.136 13.5749 110.926 12.9147L112.928 11.2418C115.455 9.12973 119.223 9.45797 121.344 11.975C123.464 14.4921 123.135 18.2439 120.607 20.356L118.605 22.0289C117.815 22.6891 116.638 22.5866 115.975 21.7998C115.578 21.328 115.64 20.6242 116.114 20.2283L118.401 18.3164C118.875 17.9206 119.582 17.9822 119.979 18.4539C120.141 18.6461 120.257 18.8591 120.328 19.0847C121.97 17.3243 122.077 14.5807 120.486 12.692Z" fill="#CCCCDD"/>
</g>
<ellipse cx="199.656" cy="6.08129" rx="2.48902" ry="2.47875" fill="white"/>
<path fill-rule="evenodd" clip-rule="evenodd" d="M204.323 5.46965L203.53 4.54023C203.429 4.42235 203.368 4.2761 203.355 4.12199C203.334 3.81218 203.287 3.31648 203.256 2.91063C203.242 2.73469 203.165 2.56948 203.04 2.44498C202.914 2.32049 202.748 2.24497 202.571 2.23215L201.355 2.13301C201.2 2.12027 201.053 2.0596 200.935 1.95952C200.711 1.76744 200.313 1.43594 200.002 1.16951C199.867 1.05477 199.696 0.991699 199.52 0.991699C199.343 0.991699 199.172 1.05477 199.037 1.16951L198.104 1.95952C197.986 2.0596 197.839 2.12027 197.684 2.13301L196.474 2.23215C196.297 2.24506 196.13 2.32102 196.004 2.44615C195.879 2.57128 195.803 2.73724 195.79 2.91373C195.755 3.32268 195.715 3.84316 195.69 4.12508C195.677 4.27919 195.616 4.42545 195.516 4.54333C195.326 4.76949 194.99 5.16294 194.722 5.47275C194.607 5.60644 194.544 5.77679 194.544 5.95296C194.544 6.12913 194.607 6.29947 194.722 6.43316L195.516 7.36259C195.616 7.48046 195.677 7.62672 195.69 7.78083C195.715 8.09064 195.758 8.58633 195.79 8.99218C195.804 9.16757 195.881 9.33205 196.006 9.45591C196.132 9.57977 196.298 9.65484 196.474 9.66756L197.69 9.7667C197.845 9.77944 197.992 9.84011 198.11 9.9402L199.044 10.7302C199.178 10.8449 199.349 10.908 199.526 10.908C199.703 10.908 199.874 10.8449 200.008 10.7302C200.319 10.4638 200.714 10.1323 200.941 9.9402C201.06 9.84011 201.206 9.77944 201.361 9.7667L202.571 9.66756C202.749 9.65465 202.915 9.5787 203.041 9.45357C203.167 9.32844 203.243 9.16248 203.256 8.98598C203.29 8.57704 203.334 8.05656 203.355 7.77463C203.368 7.62052 203.429 7.47427 203.53 7.35639C203.722 7.13333 204.055 6.73677 204.323 6.42696C204.437 6.29349 204.5 6.12378 204.5 5.94831C204.5 5.77284 204.437 5.60312 204.323 5.46965ZM199.331 7.22169C199.232 7.32013 199.073 7.32019 198.974 7.22182L197.951 6.2035C197.852 6.1046 197.852 5.94382 197.951 5.84492L198.119 5.67812C198.217 5.57993 198.377 5.57978 198.475 5.6778L199.152 6.34951L200.57 4.93801C200.669 4.83968 200.828 4.83968 200.927 4.93801L201.094 5.10461C201.193 5.20346 201.194 5.36414 201.094 5.46306L199.331 7.22169Z" fill="url(#paint6_linear_9198_105194)"/>
<g clip-path="url(#clip4_9198_105194)">
<path d="M5.9214 183.617C6.05131 183.454 6.09484 183.227 6.01814 183.017C5.8996 182.693 5.54065 182.526 5.21601 182.643C4.89136 182.761 4.72442 183.119 4.84296 183.443C4.92019 183.655 5.09942 183.799 5.30443 183.841L5.07737 185.828C5.04131 186.144 4.72252 186.346 4.42084 186.244L2.72955 185.672C2.76707 185.547 2.76662 185.409 2.71835 185.277C2.59981 184.953 2.24086 184.785 1.91621 184.903C1.59157 185.021 1.42463 185.379 1.54317 185.703C1.6617 186.027 2.02066 186.195 2.3453 186.077L2.35558 186.073L4.37531 189.519C4.61916 189.936 5.12751 190.121 5.58289 189.956L9.6549 188.48C10.1088 188.315 10.3796 187.85 10.2982 187.373L9.62114 183.44L9.63143 183.436C9.95607 183.318 10.123 182.96 10.0045 182.636C9.88594 182.312 9.52698 182.144 9.20234 182.262C8.87769 182.38 8.71076 182.738 8.82929 183.062C8.87756 183.194 8.96615 183.3 9.07554 183.372L8.1491 184.892C7.98365 185.163 7.60908 185.213 7.37779 184.994L5.9214 183.617Z" fill="url(#paint7_linear_9198_105194)"/>
</g>
<g clip-path="url(#clip5_9198_105194)">
<path d="M257.301 196.656C257.506 196.614 257.686 196.468 257.763 196.258C257.881 195.934 257.714 195.576 257.39 195.458C257.065 195.341 256.706 195.508 256.588 195.832C256.51 196.044 256.555 196.269 256.684 196.432L255.228 197.809C254.997 198.028 254.622 197.978 254.457 197.707L253.53 196.187C253.64 196.115 253.728 196.009 253.777 195.877C253.895 195.553 253.728 195.195 253.404 195.077C253.079 194.959 252.72 195.127 252.601 195.451C252.483 195.775 252.65 196.133 252.974 196.251L252.985 196.255L252.308 200.188C252.225 200.663 252.496 201.13 252.951 201.295L257.023 202.771C257.477 202.935 257.985 202.752 258.231 202.334L260.25 198.888L260.261 198.892C260.585 199.01 260.944 198.842 261.063 198.518C261.181 198.194 261.014 197.836 260.69 197.718C260.365 197.6 260.006 197.768 259.887 198.092C259.839 198.224 259.839 198.362 259.876 198.487L258.185 199.059C257.883 199.161 257.565 198.959 257.528 198.643L257.301 196.656Z" fill="url(#paint8_linear_9198_105194)"/>
</g>
<defs>
<filter id="filter0_d_9198_105194" x="131.585" y="122.057" width="21.7275" height="21.6709" filterUnits="userSpaceOnUse" color-interpolation-filters="sRGB">
<feFlood flood-opacity="0" result="BackgroundImageFix"/>
<feColorMatrix in="SourceAlpha" type="matrix" values="0 0 0 0 0 0 0 0 0 0 0 0 0 0 0 0 0 0 127 0" result="hardAlpha"/>
<feOffset dy="2"/>
<feGaussianBlur stdDeviation="2"/>
<feComposite in2="hardAlpha" operator="out"/>
<feColorMatrix type="matrix" values="0 0 0 0 0 0 0 0 0 0 0 0 0 0 0 0 0 0 0.25 0"/>
<feBlend mode="normal" in2="BackgroundImageFix" result="effect1_dropShadow_9198_105194"/>
<feBlend mode="normal" in="SourceGraphic" in2="effect1_dropShadow_9198_105194" result="shape"/>
</filter>
<filter id="filter1_d_9198_105194" x="167.211" y="122.057" width="21.7275" height="21.6709" filterUnits="userSpaceOnUse" color-interpolation-filters="sRGB">
<feFlood flood-opacity="0" result="BackgroundImageFix"/>
<feColorMatrix in="SourceAlpha" type="matrix" values="0 0 0 0 0 0 0 0 0 0 0 0 0 0 0 0 0 0 127 0" result="hardAlpha"/>
<feOffset dy="2"/>
<feGaussianBlur stdDeviation="2"/>
<feComposite in2="hardAlpha" operator="out"/>
<feColorMatrix type="matrix" values="0 0 0 0 0 0 0 0 0 0 0 0 0 0 0 0 0 0 0.25 0"/>
<feBlend mode="normal" in2="BackgroundImageFix" result="effect1_dropShadow_9198_105194"/>
<feBlend mode="normal" in="SourceGraphic" in2="effect1_dropShadow_9198_105194" result="shape"/>
</filter>
<linearGradient id="paint0_linear_9198_105194" x1="126.029" y1="113.495" x2="116.437" y2="107.426" gradientUnits="userSpaceOnUse">
<stop stop-color="#C01B4C"/>
<stop offset="1" stop-color="#DC4B2B"/>
</linearGradient>
<linearGradient id="paint1_linear_9198_105194" x1="126.029" y1="124.038" x2="116.439" y2="117.967" gradientUnits="userSpaceOnUse">
<stop stop-color="#C01B4C"/>
<stop offset="1" stop-color="#DC4B2B"/>
</linearGradient>
<linearGradient id="paint2_linear_9198_105194" x1="122.011" y1="117.74" x2="114.953" y2="108.399" gradientUnits="userSpaceOnUse">
<stop stop-color="#C01B4C"/>
<stop offset="1" stop-color="#DC4B2B"/>
</linearGradient>
<linearGradient id="paint3_linear_9198_105194" x1="132.599" y1="117.738" x2="125.542" y2="108.396" gradientUnits="userSpaceOnUse">
<stop stop-color="#C01B4C"/>
<stop offset="1" stop-color="#DC4B2B"/>
</linearGradient>
<linearGradient id="paint4_linear_9198_105194" x1="134.509" y1="124.057" x2="148.974" y2="126.155" gradientUnits="userSpaceOnUse">
<stop stop-color="#EC731D"/>
<stop offset="1" stop-color="#FFAF00"/>
</linearGradient>
<linearGradient id="paint5_linear_9198_105194" x1="170.135" y1="124.057" x2="184.6" y2="126.155" gradientUnits="userSpaceOnUse">
<stop stop-color="#EC731D"/>
<stop offset="1" stop-color="#FFAF00"/>
</linearGradient>
<linearGradient id="paint6_linear_9198_105194" x1="193.764" y1="0.991698" x2="204.254" y2="2.513" gradientUnits="userSpaceOnUse">
<stop stop-color="#E33342"/>
<stop offset="1" stop-color="#B61267"/>
</linearGradient>
<linearGradient id="paint7_linear_9198_105194" x1="0.322339" y1="184.417" x2="9.71454" y2="182.837" gradientUnits="userSpaceOnUse">
<stop stop-color="#EC731D"/>
<stop offset="1" stop-color="#FFAF00"/>
</linearGradient>
<linearGradient id="paint8_linear_9198_105194" x1="252.496" y1="193.684" x2="260.687" y2="198.527" gradientUnits="userSpaceOnUse">
<stop stop-color="#EC731D"/>
<stop offset="1" stop-color="#FFAF00"/>
</linearGradient>
<clipPath id="clip0_9198_105194">
<rect width="219.842" height="149.762" fill="white" transform="translate(31.7676 23.7949)"/>
</clipPath>
<clipPath id="clip1_9198_105194">
<rect width="11.9347" height="11.91" fill="white" transform="matrix(0.866918 -0.498451 0.501551 0.865128 127.343 209.696)"/>
</clipPath>
<clipPath id="clip2_9198_105194">
<rect width="11.9181" height="11.9266" fill="white" transform="matrix(0.644346 0.764734 -0.76735 0.641228 251.981 33.7095)"/>
</clipPath>
<clipPath id="clip3_9198_105194">
<rect width="11.9181" height="11.9266" fill="white" transform="matrix(0.644346 0.764734 -0.76735 0.641228 118.076 6.93994)"/>
</clipPath>
<clipPath id="clip4_9198_105194">
<rect width="9" height="8" fill="white" transform="matrix(0.940145 -0.340774 0.34327 0.939237 0.813477 183.707)"/>
</clipPath>
<clipPath id="clip5_9198_105194">
<rect width="9" height="8" fill="white" transform="matrix(0.940145 0.340774 -0.34327 0.939237 253.331 193.455)"/>
</clipPath>
</defs>
</svg>
